<svg xmlns="http://www.w3.org/2000/svg" width="400" height="400"><path d="M199.997 0C89.72 0 0 89.72 0 200s89.72 200 199.997 200C310.279 400 400 310.28 400 200S310.279 0 199.997 0zm0 373.77c-95.811 0-173.766-77.953-173.766-173.77 0-95.817 77.955-173.77 173.766-173.77 95.824 0 173.772 77.953 173.772 173.77.001 95.816-77.949 173.77-173.772 173.77z"/><path d="M241.559 109.851c-5.123-5.124-13.43-5.124-18.547 0l-80.875 80.873a13.11 13.11 0 000 18.545l80.875 80.875a13.075 13.075 0 009.273 3.844c3.354 0 6.719-1.281 9.272-3.844 5.123-5.119 5.123-13.426 0-18.545l-71.597-71.604 71.597-71.6c5.125-5.118 5.125-13.424.002-18.544z"/></svg>